# xmcd CD database file
#
# Track frame offsets:
#	150
#	14409
#	33229
#	53988
#	63639
#	86169
#	102019
#	109502
#	124140
#	148189
#	169870
#	183238
#	197895
#	207472
#	234702
#	247571
#	259417
#
# Disc length: 3654 seconds
#
# Revision: 1
# Processed by: cddbd v1.5.2PL0 Copyright (c) Steve Scherf et al.
# Submitted via: CDex 1.51
#
DISCID=f40e4411
DTITLE=Marty and Elayne - Jazz Favorites
DYEAR=1991
DGENRE=Jazz
TTITLE0=Red Top
TTITLE1=Four Brothers
TTITLE2=Destiny
TTITLE3=We Remember Frank
TTITLE4=Green Dolphin Street
TTITLE5=How High The Moon
TTITLE6=Something To Do
TTITLE7=The Nearness of You
TTITLE8=The More I See You
TTITLE9=Ken's Charisma
TTITLE10=Hali
TTITLE11=Nilesology
TTITLE12=Hali's Theme/Elevation
TTITLE13=Minority
TTITLE14=I Love You
TTITLE15=Snow
TTITLE16=Everything Nice
EXTD=YEAR: 1991
EXTT0=
EXTT1=
EXTT2=
EXTT3=
EXTT4=
EXTT5=
EXTT6=
EXTT7=
EXTT8=
EXTT9=
EXTT10=
EXTT11=
EXTT12=
EXTT13=
EXTT14=
EXTT15=
EXTT16=
PLAYORDER=
